PathFileType	4	(X/Y/Z)	c:/Users/goper/Files/vsCode/490R/osim_files/C17/C17_Fast_03.trc
DataRate	CameraRate	NumFrames	NumMarkers	Units                	OrigDataRate	OrigDataStartFrame	OrigNumFrames
250.00	250.00	4	36	mm	250.0	1251	2500
                Frame#	Time	LPSIS			LASIS			LTH1			LTH2			LTH3			LTH4			LLFE			LMFE			LSH1			LSH2			LSH3			LSH4			LLMAL			LMMAL			LCAL			LMTP5			LTOE			LMTP1			RPSIS			RASIS			RTH1			RTH2			RTH3			RTH4			RLFE			RMFE			RSH1			RSH2			RSH3			RSH4			RLMAL			RMMAL			RCAL			RMTP1			RTOE			RMTP5		
		X1	Y1	Z1	X2	Y2	Z2	X3	Y3	Z3	X4	Y4	Z4	X5	Y5	Z5	X6	Y6	Z6	X7	Y7	Z7	X8	Y8	Z8	X9	Y9	Z9	X10	Y10	Z10	X11	Y11	Z11	X12	Y12	Z12	X13	Y13	Z13	X14	Y14	Z14	X15	Y15	Z15	X16	Y16	Z16	X17	Y17	Z17	X18	Y18	Z18	X19	Y19	Z19	X20	Y20	Z20	X21	Y21	Z21	X22	Y22	Z22	X23	Y23	Z23	X24	Y24	Z24	X25	Y25	Z25	X26	Y26	Z26	X27	Y27	Z27	X28	Y28	Z28	X29	Y29	Z29	X30	Y30	Z30	X31	Y31	Z31	X32	Y32	Z32	X33	Y33	Z33	X34	Y34	Z34	X35	Y35	Z35	X36	Y36	Z36

1251	5.00000	-1480.17773	1107.85498	236.90532	-1673.27808	1047.30151	329.82516	-1567.17505	723.57227	356.54077	-1572.44629	681.33154	344.92389	-1627.82410	729.90741	353.42136	-1626.90894	685.64215	345.71408	-1563.27490	513.06964	306.21484	-1562.53552	521.63226	183.05455	-1535.48279	278.33160	293.10132	-1522.81812	237.13596	285.07037	-1474.76538	290.52197	292.82993	-1470.76770	247.59923	284.90472	-1468.31165	106.13610	256.16608	-1482.97021	116.47167	169.75250	-1390.32056	71.23750	211.18289	-1580.11133	46.56796	277.23761	-1639.80676	63.37389	210.99582	-1621.51709	46.17521	162.22588	-1483.03699	1101.37622	162.67595	-1656.35510	1062.41125	63.64177	-1682.01709	769.77863	2.22261	-1694.00903	727.24115	5.27930	-1736.65222	787.37219	9.76822	-1747.58533	740.50311	12.29340	-1774.92322	521.19916	27.28630	-1768.01355	532.00067	153.73759	-1657.08630	345.86105	20.93417	-1655.16577	301.39804	32.25793	-1719.12964	333.24515	24.71788	-1705.71838	287.90414	34.59095	-1620.15894	127.67965	60.19734	-1661.80432	138.34309	143.79643	-1554.63416	98.10512	116.78211	-1787.02063	55.63351	122.44337	-1797.89124	80.67747	76.92513	-1731.11365	54.25020	17.60680
1252	5.00400	-1486.65186	1107.75464	236.33336	-1679.72009	1046.90515	330.20627	-1571.03076	723.99469	356.72763	-1575.78088	681.70184	345.01642	-1631.06604	729.71753	353.05093	-1630.26282	685.56238	345.57205	-1564.75745	513.36890	306.42209	-1564.10693	521.99164	183.20969	-1536.16394	278.70255	293.42593	-1523.36731	237.54088	285.31934	-1475.75195	291.14331	293.00681	-1471.18518	248.21269	285.19800	-1468.61426	106.52535	256.30109	-1483.32764	116.94109	169.92615	-1390.51440	71.77993	211.28775	-1580.13940	46.50827	277.28766	-1639.92212	63.23770	211.05446	-1621.14795	45.93830	162.25792	-1489.88708	1101.00867	162.22127	-1663.37415	1062.12744	63.96348	-1690.24390	769.95551	2.17448	-1702.54663	727.56390	5.19070	-1744.78931	787.82330	9.88107	-1756.01282	741.14270	12.36685	-1784.68225	522.06830	27.57428	-1778.49670	532.78149	154.61449	-1671.75574	343.69992	21.22937	-1670.44214	298.19913	34.51765	-1734.09619	332.67297	24.88567	-1722.07385	286.99496	34.71013	-1640.56946	124.54114	60.06796	-1682.23389	136.20610	143.80592	-1576.10999	93.42114	116.98607	-1809.50146	56.35191	122.33455	-1819.69360	81.63576	76.81515	-1753.33899	53.64523	17.56679
1253	5.00800	-1493.23352	1107.38940	235.85168	-1686.31555	1046.46375	330.51706	-1572.63550	724.84473	354.10431	-1579.24854	682.03540	345.02701	-1634.75220	729.53967	352.93689	-1633.92188	685.43359	345.20862	-1566.28516	513.82434	306.63196	-1565.84924	522.38702	183.42577	-1536.81970	279.11523	293.69537	-1523.99524	238.03616	285.60461	-1476.02710	291.72806	293.00024	-1471.84363	248.77895	285.33344	-1468.94434	106.97401	256.44006	-1483.64868	117.45134	170.10037	-1390.68945	72.31743	211.37103	-1580.20630	46.48254	277.32330	-1640.07214	63.14300	211.09540	-1621.26245	45.96598	162.28387	-1496.74097	1100.59192	161.77299	-1670.15222	1061.74060	64.27654	-1698.55200	770.07104	2.19516	-1711.01587	727.80420	5.18531	-1752.93164	788.36066	10.03424	-1764.48511	741.62598	12.56109	-1794.49402	522.85339	27.93349	-1787.95459	533.21472	154.90034	-1686.19775	341.58405	21.38378	-1686.18005	295.72177	35.35057	-1749.08594	332.19327	25.08144	-1737.83862	286.09137	34.98148	-1661.21289	121.65677	60.24400	-1702.63269	134.22858	143.86858	-1597.62549	89.10977	117.31275	-1831.72034	57.20990	122.24463	-1841.38965	82.75811	76.72123	-1775.16125	53.43835	17.49812
1254	5.01200	-1499.96387	1106.56396	235.64479	-1692.85425	1046.03638	330.83615	-1578.50720	724.75946	356.87549	-1582.57800	682.42395	345.00455	-1638.83179	729.42767	352.91330	-1637.42346	685.17114	344.76541	-1567.90991	514.21655	306.76392	-1567.58643	522.71271	183.62335	-1537.54932	279.52258	293.93878	-1524.56152	238.53961	285.93350	-1476.90869	292.30817	293.30316	-1472.43774	249.42447	285.50027	-1469.24878	107.46046	256.54977	-1483.94629	117.95883	170.28055	-1390.91309	72.93584	211.41075	-1580.45276	46.43348	277.37421	-1640.21082	63.01206	211.11859	-1621.31018	45.98225	162.33736	-1503.48022	1100.00879	161.30287	-1677.04407	1061.29089	64.50488	-1706.77393	770.09698	2.20099	-1719.43481	727.92419	5.22688	-1760.88403	788.69653	10.16662	-1772.69617	742.02936	12.70868	-1804.27563	523.56879	28.36194	-1796.37439	533.25354	154.73505	-1700.74231	339.46964	21.55784	-1702.22888	293.76895	35.15785	-1764.01477	331.86649	25.49064	-1754.03210	285.36609	35.25080	-1681.92578	118.94881	60.43719	-1723.17920	132.50900	144.07401	-1618.51172	85.46740	117.46837	-1854.12061	58.42157	122.18195	-1863.05566	84.11093	76.65638	-1797.72229	53.17464	17.61940
